<svg width="63" height="56" viewBox="0 0 63 56" fill="none" xmlns="http://www.w3.org/2000/svg">
<path d="M43.6726 22.3865C40.5892 21.0066 31.6928 0.0139791 29.5687 2.15285C27.4446 4.29172 21.0064 21.1278 19.0194 21.1278C17.0324 21.1278 1.01959 20.5926 2.04738 22.3865C3.07517 24.1804 17.827 35.3293 17.7585 38.0201C17.69 40.711 14.2808 53.8712 16.2678 53.8712C18.2549 53.8712 29.6489 41.5846 32.3211 41.7226C34.9934 41.8606 45.1232 55.4581 46.425 53.8712C47.7269 52.2843 43.4241 39.952 44.2464 38.0201C45.0686 36.0883 63.2935 23.4418 60.7583 23.4418C58.2231 23.4418 46.756 23.7664 43.6726 22.3865Z" stroke="#0C0C0C" stroke-width="4" stroke-linecap="round"/>
</svg>
